<svg id="Camada_1" data-name="Camada 1" xmlns="http://www.w3.org/2000/svg" viewBox="0 0 212.68 96.94"><defs><style>.cls-1{fill:#00a5d1;opacity:0.8;}.cls-2{font-size:83.95px;fill:#fff;font-family:Montserrat-Bold, Montserrat Bold;font-weight:700;}</style></defs><title>CodeSync_logo_V2_1_BG</title><path class="cls-1" d="M107.89,109.51,53.94,78.36A4.21,4.21,0,0,0,47.62,82V144.3A4.21,4.21,0,0,0,53.94,148l54-31.15A4.21,4.21,0,0,0,107.89,109.51Z" transform="translate(-25.42 -77.79)"/><path class="cls-1" d="M85.69,122.35,31.74,91.2a4.21,4.21,0,0,0-6.32,3.65v62.29a4.21,4.21,0,0,0,6.32,3.65l54-31.15A4.21,4.21,0,0,0,85.69,122.35Z" transform="translate(-25.42 -77.79)"/><path class="cls-1" d="M107.89,134.76,53.94,103.61a4.21,4.21,0,0,0-6.32,3.65v62.29a4.21,4.21,0,0,0,6.32,3.65l54-31.14A4.21,4.21,0,0,0,107.89,134.76Z" transform="translate(-25.42 -77.79)"/><text class="cls-2" transform="translate(97.64 75.95)">CS</text></svg>